<?xml version="1.0" encoding="iso-8859-1"?>
<!-- Uploaded to: SVG Repo, www.svgrepo.com, Generator: SVG Repo Mixer Tools -->
<!DOCTYPE svg PUBLIC "-//W3C//DTD SVG 1.1//EN" "http://www.w3.org/Graphics/SVG/1.1/DTD/svg11.dtd">
<svg fill="#ffffff" version="1.1" id="Capa_1" xmlns="http://www.w3.org/2000/svg" xmlns:xlink="http://www.w3.org/1999/xlink" 
	 width="800px" height="800px" viewBox="0 0 393.87 393.869"
	 xml:space="preserve">
<g>
	<g>
		<path d="M387.913,372.929c-1.225-3.06-3.061-6.12-6.12-7.344c4.896-5.508,5.508-15.912-0.612-20.809
			c-6.731-5.508-16.523-1.836-18.972,5.509c-3.061-4.896-9.792-6.732-15.3-3.673c-4.284,2.448-6.12,7.345-4.896,12.24
			c-4.284,0-8.567,2.448-11.016,4.284c-5.508,4.896-7.344,12.24-4.284,18.972c2.448,6.12,7.956,11.017,15.3,10.404
			c4.896,0,9.792-3.06,12.853-7.344c3.672,10.403,19.584,11.016,27.54,4.284C386.688,385.78,389.749,379.049,387.913,372.929z"/>
		<path d="M327.325,317.236c2.447-0.611,5.508-1.224,7.344-2.447c7.344-4.284,11.016-12.24,10.404-20.196
			c-0.612-7.344-4.896-13.464-11.628-15.912c-3.673-1.224-7.956-1.224-11.017,0.612c0.612-9.792-9.792-16.524-19.584-15.3
			c-7.956,0.611-18.972,7.344-17.748,15.911c-6.731-2.447-13.464-3.06-20.808,0c-6.12,2.448-10.404,7.345-12.24,13.464
			c-2.448,8.568,3.672,18.36,11.628,19.584c-1.836,3.673-4.896,7.345-4.896,11.017c-0.612,6.12,3.06,10.404,8.567,13.464
			c7.344,4.284,16.524,3.672,23.868,0c0.612,12.852,20.196,15.912,29.376,9.18C330.384,339.269,331.608,327.641,327.325,317.236z"/>
		<path d="M302.844,166.073c31.212-14.076,30.601-62.424-2.448-63.036c12.24-20.808,17.748-44.676-2.447-63.648
			c-18.36-17.136-45.9-18.36-67.32-7.956c4.284-17.748-14.076-29.376-30.6-31.212c-15.3-1.836-29.376,7.956-33.661,22.032
			c-5.508-11.016-16.524-19.584-30.6-18.36c-6.732,0.612-13.464,4.284-18.36,9.792l0,0l0,0c-0.612,1.224-7.344,9.792-6.12,10.404
			c-1.224-0.612-3.672-3.06-7.344-3.672c-23.256-2.448-40.392-6.732-57.528,13.464c-12.24,14.076-15.3,32.436-6.12,47.736
			c-16.524,0.612-34.884,9.18-34.884,28.152c0,11.628,7.956,20.196,17.748,22.032c-11.628,16.524-21.42,35.496-12.24,55.692
			c5.508,12.24,17.136,19.584,29.988,20.195c-11.016,13.464-13.464,36.721-4.284,50.185c12.852,18.359,34.884,17.136,52.632,7.956
			c0.612,17.748,14.688,29.376,33.048,34.271c25.092,7.344,44.676-3.672,56.916-24.479c25.704,25.704,67.933,14.688,78.336-19.584
			C305.905,287.86,351.804,181.373,302.844,166.073z M75.18,207.688c-4.284-14.075,0.612-34.271,1.836-48.959
			c1.224-17.748,2.448-35.496,4.284-53.244c0-1.224,0.612-1.836,1.224-1.836c0-3.06,1.836-6.12,5.508-6.732
			c37.332-3.06,74.664-5.508,111.997-6.12c15.911-0.612,44.063-7.344,56.916,4.896c12.239,12.24,7.344,54.468,6.731,69.768
			c-0.612,14.076,0,34.883-11.628,45.288c-13.464,13.464-40.392,7.344-57.528,7.956c-31.824,0-69.156,5.508-102.204,1.224
			C82.524,218.705,78.24,218.093,75.18,207.688z"/>
		<path d="M193.296,152.609c9.18,8.568,18.36,17.748,28.152,25.704c7.956,6.732,15.912,12.24,23.867,18.36
			c12.853-14.076,9.792-39.78,8.568-58.752c-0.612-10.404,0.612-20.808-6.731-29.988l0,0
			c-17.137,14.076-34.272,28.152-51.408,41.616C195.132,151.385,193.908,151.997,193.296,152.609z"/>
		<path d="M146.172,142.205c-0.612-3.06,0.612-6.732,3.672-8.568c7.344-3.672,14.076,0,18.36,6.732c0,0.612,0.612,1.224,0.612,1.224
			c2.448-12.24,7.344-22.032,18.36-15.912c5.508,3.06,6.732,9.18,6.732,15.3c16.524-11.016,32.436-28.152,45.9-39.168
			c-5.508-2.448-11.628-1.224-20.808-1.224c-42.228,1.224-84.456,3.672-126.684,7.344c15.3,10.404,36.108,28.152,55.08,36.72
			C146.784,144.041,146.172,143.429,146.172,142.205z"/>
		<path d="M115.572,210.749c20.808-0.612,42.228-1.225,63.036-1.225c18.972-0.611,40.392,3.061,56.916-5.508
			c-17.136-12.239-32.436-29.375-45.288-45.288c-2.448,6.732-5.508,12.852-9.792,18.36c-1.224,6.732-11.016,6.12-13.464,0
			c0,0,0,0,0-0.612c-4.896-4.284-9.18-9.18-12.852-14.688c-0.612-0.612-1.836-1.224-2.448-1.836
			c-19.584,17.136-41.616,31.824-62.424,47.124C96.601,213.809,105.168,210.749,115.572,210.749z"/>
		<path d="M143.112,153.221c-18.972-12.852-37.944-25.704-56.304-39.168c0,20.808-1.224,41.616-2.448,62.424
			c-0.612,9.18-3.672,17.748,0.612,25.704c19.584-15.912,39.168-33.047,59.364-47.735
			C144.336,153.833,143.725,153.221,143.112,153.221z"/>
	</g>
</g>
</svg>